<?xml version="1.0" encoding="UTF-8"?>
<svg id="Layer_2" xmlns="http://www.w3.org/2000/svg" xmlns:xlink="http://www.w3.org/1999/xlink" viewBox="0 0 240.14 240.14">
  <defs>
    <style>
      .cls-1 {
        fill: #ff9400;
      }

      .cls-2 {
        fill: #fff;
      }

      .cls-3 {
        fill: #008c00;
      }

      .cls-4, .cls-5 {
        fill: none;
      }

      .cls-5 {
        stroke: #999;
        stroke-miterlimit: 10;
        stroke-width: 5px;
      }

      .cls-6 {
        fill: #00008f;
      }

      .cls-7 {
        fill: #b60028;
      }

      .cls-8 {
        fill: #2a254b;
      }

      .cls-9 {
        clip-path: url(#clippath);
      }
    </style>
    <clipPath id="clippath">
      <circle class="cls-4" cx="120.07" cy="120.07" r="120"/>
    </clipPath>
  </defs>
  <g id="Layer_1-2" data-name="Layer_1">
    <g>
      <g class="cls-9">
        <g>
          <rect class="cls-7" x="-79.93" y=".07" width="400" height="40.47"/>
          <rect class="cls-2" x="-79.93" y="40.54" width="400" height="40.47"/>
          <rect class="cls-8" x="-79.93" y="81.01" width="400" height="78.13"/>
          <rect class="cls-2" x="-79.93" y="159.14" width="400" height="40.47"/>
          <rect class="cls-7" x="-79.93" y="199.6" width="400" height="40.47"/>
          <g>
            <g>
              <rect class="cls-1" x="-79.93" y=".07" width="400" height="80"/>
              <rect class="cls-2" x="-79.93" y="80.07" width="400" height="80"/>
              <rect class="cls-3" x="-79.93" y="160.07" width="400" height="80"/>
            </g>
            <g>
              <path class="cls-6" d="M120.22,113.99c.97-3.46.91-6.96.83-10.5-.11-3.42-.31-7.13-.85-10.5-.02-.14-.23-.14-.25,0-.42,2.53-.61,5.32-.75,7.88-.14,4.38-.45,8.84.73,13.13.03.14.25.14.29,0Z"/>
              <path class="cls-6" d="M118.36,114.23c.07.13.28.07.28-.08.04-3.6-.93-6.96-1.91-10.36-.99-3.27-2.14-6.8-3.54-9.92-.05-.13-.26-.07-.24.06.25,2.55.79,5.3,1.31,7.8,1,4.26,1.85,8.66,4.11,12.49Z"/>
              <path class="cls-6" d="M116.9,114.87c.1.11.29,0,.25-.15-.89-3.49-2.7-6.49-4.53-9.51-1.81-2.9-3.83-6.02-5.99-8.67-.09-.11-.27,0-.22.13.9,2.4,2.13,4.91,3.28,7.2,2.07,3.86,4.03,7.88,7.2,11Z"/>
              <path class="cls-6" d="M105.87,107.11c3,3.19,5.93,6.57,9.8,8.76.13.08.28-.08.21-.21-1.76-3.14-4.28-5.57-6.84-8.01-2.5-2.34-5.26-4.82-8.03-6.82-.11-.09-.26.07-.18.18,1.49,2.08,3.33,4.19,5.04,6.1Z"/>
              <path class="cls-6" d="M102.99,111.23c3.72,2.31,7.43,4.81,11.73,5.93.14.04.25-.15.15-.25-2.52-2.57-5.58-4.27-8.68-5.97-3.02-1.61-6.32-3.3-9.52-4.51-.13-.06-.23.13-.13.22,1.98,1.63,4.3,3.19,6.44,4.59Z"/>
              <path class="cls-6" d="M101.29,115.95c4.19,1.27,8.42,2.72,12.87,2.69.15,0,.2-.21.08-.28-3.1-1.83-6.49-2.68-9.93-3.52-3.33-.77-6.96-1.55-10.36-1.89-.14-.02-.19.19-.06.24,2.33,1.06,4.98,1.97,7.41,2.77Z"/>
              <path class="cls-6" d="M113.99,120.22c.14-.03.14-.25,0-.29-3.46-.97-6.96-.91-10.5-.83-3.42.11-7.13.31-10.5.85-.14.02-.14.23,0,.25,2.53.42,5.32.61,7.88.75,4.38.14,8.84.45,13.13-.73Z"/>
              <path class="cls-6" d="M114.23,121.78c.13-.07.07-.28-.08-.28-3.6-.04-6.96.93-10.36,1.91-3.27.99-6.8,2.14-9.92,3.54-.13.05-.07.26.06.24,2.55-.25,5.3-.79,7.8-1.31,4.26-1,8.66-1.85,12.49-4.11Z"/>
              <path class="cls-6" d="M114.87,123.24c.11-.1,0-.29-.15-.25-3.49.89-6.49,2.7-9.51,4.53-2.9,1.81-6.02,3.83-8.67,5.99-.11.09,0,.27.13.22,2.4-.9,4.91-2.13,7.2-3.28,3.86-2.07,7.88-4.03,11-7.2Z"/>
              <path class="cls-6" d="M115.87,124.47c.08-.13-.08-.28-.21-.21-3.14,1.76-5.57,4.28-8.01,6.84-2.34,2.5-4.82,5.26-6.82,8.03-.09.11.07.26.18.18,2.08-1.49,4.19-3.33,6.1-5.04,3.19-3,6.57-5.93,8.76-9.8Z"/>
              <path class="cls-6" d="M116.9,125.27c-2.57,2.51-4.27,5.58-5.97,8.68-1.61,3.02-3.3,6.32-4.51,9.52-.05.13.13.23.22.13,1.63-1.98,3.19-4.3,4.59-6.44,2.31-3.72,4.81-7.43,5.93-11.73.04-.14-.15-.25-.25-.14Z"/>
              <path class="cls-6" d="M118.36,125.91c-1.83,3.1-2.68,6.49-3.52,9.93-.77,3.33-1.55,6.96-1.89,10.36-.02.14.19.19.24.06,1.06-2.33,1.97-4.98,2.77-7.41,1.27-4.19,2.72-8.42,2.69-12.87,0-.15-.21-.2-.28-.08Z"/>
              <path class="cls-6" d="M119.93,126.15c-.97,3.46-.91,6.96-.83,10.5.11,3.42.31,7.13.85,10.5.02.14.23.14.25,0,.42-2.53.61-5.32.75-7.88.14-4.38.45-8.84-.73-13.13-.03-.14-.25-.14-.29,0Z"/>
              <path class="cls-6" d="M121.78,125.91c-.07-.13-.28-.07-.28.08-.04,3.6.93,6.96,1.91,10.36.99,3.27,2.14,6.8,3.54,9.92.05.13.26.07.24-.06-.25-2.55-.79-5.3-1.31-7.8-1-4.26-1.85-8.66-4.11-12.49Z"/>
              <path class="cls-6" d="M123.24,125.27c-.1-.11-.29,0-.25.14.89,3.49,2.7,6.49,4.53,9.51,1.81,2.9,3.83,6.02,5.99,8.67.09.11.27,0,.22-.13-.9-2.4-2.13-4.91-3.28-7.2-2.07-3.86-4.03-7.88-7.2-11Z"/>
              <path class="cls-6" d="M134.28,133.03c-3-3.19-5.93-6.57-9.8-8.76-.13-.08-.28.08-.21.21,1.76,3.14,4.28,5.57,6.84,8.01,2.5,2.34,5.25,4.82,8.03,6.82.11.09.26-.07.18-.18-1.49-2.08-3.33-4.19-5.04-6.1Z"/>
              <path class="cls-6" d="M143.59,133.5c-1.98-1.63-4.3-3.19-6.44-4.59-3.72-2.31-7.43-4.81-11.73-5.93-.14-.04-.25.15-.15.25,2.52,2.57,5.58,4.27,8.68,5.97,3.02,1.61,6.32,3.3,9.52,4.51.13.05.23-.13.13-.22Z"/>
              <path class="cls-6" d="M138.85,124.19c-4.19-1.27-8.42-2.72-12.87-2.69-.15,0-.2.21-.08.28,3.1,1.83,6.49,2.68,9.93,3.52,3.33.77,6.96,1.55,10.36,1.89.14.02.19-.19.06-.24-2.33-1.06-4.98-1.97-7.41-2.77Z"/>
              <path class="cls-6" d="M126.15,119.93c-.14.03-.14.25,0,.29,3.46.97,6.96.91,10.5.83,3.42-.11,7.13-.31,10.5-.85.14-.02.14-.23,0-.25-2.53-.42-5.32-.61-7.88-.75-4.38-.14-8.84-.45-13.13.73Z"/>
              <path class="cls-6" d="M125.91,118.36c-.13.07-.07.28.08.28,3.6.04,6.96-.93,10.36-1.91,3.27-.99,6.8-2.14,9.92-3.54.13-.05.07-.26-.06-.24-2.55.25-5.3.79-7.8,1.31-4.26,1-8.66,1.85-12.49,4.11Z"/>
              <path class="cls-6" d="M125.27,116.9c-.11.1,0,.29.15.25,3.49-.89,6.49-2.7,9.51-4.53,2.9-1.81,6.02-3.83,8.67-5.99.11-.09,0-.27-.13-.22-2.4.9-4.91,2.13-7.2,3.28-3.86,2.07-7.88,4.03-11,7.2Z"/>
              <path class="cls-6" d="M124.27,115.67c-.08.13.08.28.21.21,3.14-1.76,5.57-4.28,8.01-6.84,2.34-2.5,4.82-5.26,6.82-8.03.09-.11-.07-.26-.18-.18-2.08,1.49-4.19,3.33-6.1,5.04-3.19,3-6.57,5.93-8.76,9.8Z"/>
              <path class="cls-6" d="M123.24,114.87c2.57-2.52,4.27-5.58,5.97-8.68,1.61-3.02,3.3-6.32,4.51-9.52.05-.13-.13-.23-.22-.13-1.63,1.98-3.19,4.3-4.59,6.44-2.31,3.72-4.81,7.43-5.93,11.73-.04.14.15.25.25.15Z"/>
              <path class="cls-6" d="M125.23,121.45c.76-2.85-.93-5.78-3.78-6.54-2.85-.76-5.78.93-6.54,3.78-.76,2.85.93,5.78,3.78,6.54,2.85.76,5.78-.93,6.54-3.78Z"/>
              <path class="cls-6" d="M121.78,114.23c1.83-3.1,2.68-6.49,3.52-9.93.77-3.33,1.55-6.96,1.89-10.36.02-.14-.19-.19-.24-.06-1.06,2.33-1.97,4.98-2.77,7.41-1.27,4.19-2.72,8.42-2.69,12.87,0,.15.21.2.28.08Z"/>
              <path class="cls-6" d="M124.26,88.27c-2.85-.38-5.67-.36-8.39,0-14.04,1.85-25.66,12.91-27.59,27.62-2.31,17.56,10.05,33.67,27.61,35.99,2.85.38,5.67.36,8.39,0,14.04-1.85,25.66-12.91,27.59-27.62,2.31-17.56-10.05-33.67-27.61-35.99ZM138.44,141.38c-.55-.66-1.52-.78-2.21-.25-.69.53-.82,1.5-.33,2.2-1.15.78-2.35,1.48-3.61,2.09-.35-.78-1.27-1.15-2.07-.82-.8.33-1.19,1.24-.88,2.05-1.3.46-2.65.81-4.03,1.08-.14-.85-.93-1.44-1.78-1.33-.86.11-1.46.89-1.38,1.74-1.38.1-2.78.1-4.17,0,.08-.85-.52-1.62-1.38-1.74-.86-.11-1.64.48-1.78,1.32-1.39-.26-2.73-.62-4.03-1.08.3-.8-.08-1.71-.88-2.04-.8-.33-1.71.04-2.06.81-1.26-.61-2.47-1.31-3.61-2.09.49-.7.35-1.67-.33-2.19-.68-.52-1.65-.41-2.2.25-1.05-.91-2.04-1.9-2.95-2.95.65-.55.77-1.51.24-2.2s-1.49-.82-2.18-.33c-.78-1.15-1.48-2.35-2.09-3.61.77-.36,1.14-1.26.81-2.06-.33-.8-1.23-1.18-2.03-.88-.46-1.31-.82-2.65-1.08-4.03.85-.14,1.43-.93,1.32-1.78-.11-.86-.89-1.46-1.74-1.38-.1-1.37-.1-2.76,0-4.17.85.08,1.63-.52,1.74-1.38.11-.86-.48-1.64-1.32-1.78.26-1.38.62-2.73,1.08-4.03.8.3,1.71-.08,2.04-.88.33-.8-.04-1.71-.81-2.06.61-1.26,1.31-2.46,2.09-3.61.7.49,1.67.36,2.19-.33.53-.68.41-1.66-.25-2.2.91-1.05,1.89-2.04,2.95-2.95.55.66,1.52.78,2.2.25.69-.53.82-1.5.33-2.2,1.15-.78,2.35-1.48,3.61-2.09.35.78,1.27,1.15,2.07.82.8-.33,1.19-1.24.88-2.05,1.3-.46,2.65-.81,4.03-1.08.14.85.92,1.44,1.78,1.33.86-.11,1.46-.89,1.38-1.74,1.38-.1,2.78-.1,4.17,0-.08.85.52,1.62,1.38,1.74.86.11,1.64-.48,1.78-1.32,1.39.26,2.73.62,4.03,1.08-.3.8.08,1.71.88,2.04.8.33,1.71-.04,2.06-.81,1.26.61,2.47,1.31,3.61,2.09-.49.7-.35,1.66.33,2.19.68.52,1.65.41,2.2-.25,1.05.91,2.04,1.9,2.95,2.95-.65.55-.77,1.51-.24,2.2.52.68,1.49.82,2.18.33.78,1.15,1.48,2.35,2.09,3.61-.77.36-1.14,1.26-.81,2.06.33.8,1.23,1.18,2.03.89.46,1.31.82,2.65,1.08,4.03-.84.14-1.43.93-1.32,1.78.11.86.89,1.46,1.74,1.38.1,1.37.1,2.76,0,4.17-.85-.08-1.63.52-1.74,1.38-.11.86.48,1.64,1.32,1.78-.26,1.38-.62,2.73-1.08,4.03-.8-.3-1.71.08-2.04.88-.33.8.04,1.71.81,2.06-.61,1.26-1.31,2.46-2.09,3.61-.7-.49-1.67-.36-2.19.33-.53.69-.41,1.66.25,2.2-.91,1.05-1.89,2.04-2.95,2.95Z"/>
            </g>
          </g>
        </g>
      </g>
      <circle class="cls-5" cx="120.07" cy="120.07" r="117.57"/>
    </g>
  </g>
</svg>