<?xml version="1.0" encoding="UTF-8"?>
<svg id="Layer_2" xmlns="http://www.w3.org/2000/svg" xmlns:xlink="http://www.w3.org/1999/xlink" viewBox="0 0 240.14 240.14">
  <defs>
    <style>
      .cls-1 {
        fill: #00006b;
      }

      .cls-2 {
        fill: #fff;
      }

      .cls-3, .cls-4 {
        fill: none;
      }

      .cls-4 {
        stroke: #999;
        stroke-miterlimit: 10;
        stroke-width: 5px;
      }

      .cls-5 {
        fill: #ffcb00;
      }

      .cls-6 {
        fill: #e00000;
      }

      .cls-7 {
        fill: #b60028;
      }

      .cls-8 {
        fill: #2a254b;
      }

      .cls-9 {
        clip-path: url(#clippath);
      }
    </style>
    <clipPath id="clippath">
      <circle class="cls-3" cx="120.07" cy="120.07" r="120"/>
    </clipPath>
  </defs>
  <g id="Layer_1-2" data-name="Layer_1">
    <g>
      <g class="cls-9">
        <g>
          <rect class="cls-7" x="-79.93" y=".4" width="400" height="40.47"/>
          <rect class="cls-2" x="-79.93" y="40.87" width="400" height="40.47"/>
          <rect class="cls-8" x="-79.93" y="81.33" width="400" height="78.13"/>
          <rect class="cls-2" x="-79.93" y="159.46" width="400" height="40.47"/>
          <rect class="cls-7" x="-79.93" y="199.93" width="400" height="40.47"/>
          <g>
            <g>
              <rect class="cls-6" x="-79.93" y="-.26" width="400" height="17.14"/>
              <rect class="cls-2" x="-79.93" y="16.88" width="400" height="17.14"/>
              <rect class="cls-6" x="-79.93" y="34.03" width="400" height="17.14"/>
              <rect class="cls-2" x="-79.93" y="51.17" width="400" height="17.14"/>
              <rect class="cls-6" x="-79.93" y="68.31" width="400" height="17.14"/>
              <rect class="cls-2" x="-79.93" y="85.46" width="400" height="17.14"/>
              <rect class="cls-6" x="-79.93" y="102.6" width="400" height="17.14"/>
              <rect class="cls-2" x="-79.93" y="119.74" width="400" height="17.14"/>
              <rect class="cls-6" x="-79.93" y="136.88" width="400" height="17.14"/>
              <rect class="cls-2" x="-79.93" y="154.03" width="400" height="17.14"/>
              <rect class="cls-6" x="-79.93" y="171.17" width="400" height="17.14"/>
              <rect class="cls-2" x="-79.93" y="188.31" width="400" height="17.14"/>
              <rect class="cls-6" x="-79.93" y="205.46" width="400" height="17.14"/>
              <rect class="cls-2" x="-79.93" y="222.6" width="400" height="17.14"/>
            </g>
            <rect class="cls-1" x="-15.92" y="-.26" width="200" height="137.14"/>
            <g>
              <polygon class="cls-5" points="107.43 99.57 103.95 83.55 93.87 96.47 97.69 80.53 83 87.8 93.35 75.09 76.96 75.27 91.8 68.31 76.96 61.36 93.35 61.53 83 48.83 97.69 56.1 93.87 40.15 103.95 53.08 107.43 37.06 110.91 53.08 120.99 40.15 117.17 56.1 131.87 48.83 121.51 61.53 137.9 61.36 123.06 68.31 137.9 75.27 121.51 75.09 131.87 87.8 117.17 80.53 120.99 96.47 110.91 83.55 107.43 99.57"/>
              <path class="cls-5" d="M78.21,103.51c1.41,0,2.8-.08,4.16-.24-4.42,1.82-9.26,2.82-14.33,2.82-20.86,0-37.77-16.91-37.77-37.77s16.91-37.76,37.77-37.76c5.08,0,9.91,1,14.33,2.82-1.36-.16-2.75-.24-4.16-.24-19.44,0-35.2,15.75-35.2,35.19s15.75,35.2,35.2,35.2Z"/>
            </g>
          </g>
        </g>
      </g>
      <circle class="cls-3" cx="120.07" cy="120.07" r="120"/>
      <circle class="cls-3" cx="120.07" cy="120.07" r="120"/>
      <circle class="cls-3" cx="120.07" cy="120.07" r="120"/>
      <rect class="cls-3" x=".07" y=".07" width="240" height="240" rx="5.48" ry="5.48"/>
      <circle class="cls-3" cx="120.07" cy="120.07" r="120"/>
      <circle class="cls-4" cx="120.07" cy="120.07" r="117.57"/>
    </g>
  </g>
</svg>